<?xml version="1.0" standalone="no"?>
<!DOCTYPE svg PUBLIC "-//W3C//DTD SVG 20010904//EN"
 "http://www.w3.org/TR/2001/REC-SVG-20010904/DTD/svg10.dtd">
<svg version="1.0" xmlns="http://www.w3.org/2000/svg"
 width="700.000000pt" height="700.000000pt" viewBox="0 0 700.000000 700.000000"
 preserveAspectRatio="xMidYMid meet">
<metadata>
Created by potrace 1.11, written by Peter Selinger 2001-2013
</metadata>
<g transform="translate(0.000000,700.000000) scale(0.100000,-0.100000)"
fill="#000000" stroke="none">
<path d="M1635 6985 c-35 -15 -58 -37 -140 -130 -33 -38 -81 -92 -106 -119
-202 -225 -358 -399 -604 -675 -37 -42 -59 -67 -105 -118 -50 -55 -190 -212
-225 -252 -16 -19 -37 -41 -46 -50 -8 -9 -71 -79 -139 -156 -69 -77 -127 -142
-130 -145 -3 -3 -31 -34 -62 -71 -62 -70 -78 -103 -78 -152 0 -66 -31 -31 747
-823 595 -607 723 -738 723 -747 0 -4 -24 -33 -52 -65 -29 -32 -84 -92 -122
-135 -38 -43 -78 -88 -90 -100 -12 -13 -48 -54 -81 -92 -33 -38 -69 -78 -80
-89 -11 -12 -128 -143 -260 -291 -132 -149 -244 -275 -250 -281 -39 -43 -158
-176 -186 -209 -19 -22 -37 -42 -40 -45 -3 -3 -29 -32 -59 -65 -29 -33 -87
-97 -129 -143 -101 -111 -124 -153 -117 -212 8 -56 41 -105 86 -127 32 -15
208 -16 2331 -16 l2295 0 265 135 c364 187 628 323 728 375 l84 43 190 -2 190
-3 -124 -64 c-68 -35 -187 -96 -264 -136 -77 -40 -216 -112 -310 -160 -166
-86 -221 -114 -630 -326 l-200 -103 -2265 -1 -2265 0 -36 -23 c-51 -31 -72
-67 -75 -129 -3 -58 18 -99 69 -137 l28 -21 2310 -3 2309 -2 177 91 c98 50
250 129 338 174 88 45 249 128 357 184 l197 101 190 -2 190 -3 -187 -96 c-519
-265 -676 -347 -777 -399 -60 -32 -209 -109 -330 -171 l-220 -114 -2277 -5
-2277 -5 -27 -21 c-44 -32 -66 -68 -71 -115 -6 -60 28 -126 80 -155 l37 -21
2303 1 2302 1 230 119 c127 65 304 157 395 204 91 46 226 116 300 155 l135 70
183 1 c101 1 185 -1 187 -5 2 -3 -38 -26 -88 -52 -51 -26 -182 -93 -292 -150
-110 -57 -303 -156 -430 -221 -126 -66 -288 -149 -360 -186 -71 -37 -177 -91
-235 -121 l-105 -54 -2260 -1 c-1656 0 -2267 -4 -2285 -12 -86 -39 -121 -132
-81 -214 28 -56 60 -78 124 -86 29 -4 1069 -7 2312 -6 l2261 1 134 68 c74 37
180 91 235 120 55 29 199 103 320 165 222 114 424 217 700 360 296 153 542
279 674 347 73 37 146 81 162 96 56 55 61 149 12 208 -46 55 -69 59 -320 59
l-228 1 140 71 c411 209 431 223 442 306 7 55 -26 124 -74 154 -35 21 -48 22
-262 24 -124 1 -228 3 -231 3 -6 1 3 6 275 146 116 59 220 115 232 124 72 52
78 176 12 238 -42 39 -73 43 -300 43 -121 1 -217 5 -215 9 3 5 20 14 38 22 18
7 35 15 38 18 3 3 95 51 204 106 228 115 271 148 281 219 8 51 -6 96 -40 133
-44 48 -62 50 -502 49 -227 -1 -412 2 -410 6 1 4 67 81 147 170 80 90 156 178
170 197 28 41 31 110 7 156 -9 17 -97 113 -197 215 -100 102 -359 365 -575
585 -660 672 -685 698 -678 709 4 6 19 25 34 41 16 17 36 39 46 51 27 31 149
167 232 259 20 22 88 99 151 170 63 72 122 137 130 145 9 8 63 69 120 135 58
66 108 122 111 125 5 5 40 43 174 195 39 43 81 90 95 105 14 14 52 57 85 96
33 38 65 74 71 79 38 35 185 208 198 233 43 82 8 181 -75 216 -50 21 -4597 22
-4644 1z m4218 -304 c7 -1 -201 -237 -627 -711 -163 -181 -200 -223 -280 -314
-33 -37 -71 -80 -85 -96 -50 -54 -158 -176 -192 -215 -19 -22 -41 -44 -49 -50
-10 -6 -526 -12 -1472 -15 -1452 -5 -1457 -5 -1484 -26 -102 -76 -96 -214 11
-273 27 -15 154 -16 1484 -17 l1455 -1 244 -249 c134 -137 407 -415 606 -617
198 -203 362 -373 364 -378 2 -5 -275 -9 -659 -9 -660 0 -662 0 -700 -22 -101
-56 -104 -202 -6 -266 l41 -27 678 0 c373 0 678 -1 678 -2 0 -2 -81 -94 -254
-287 -39 -44 -82 -91 -94 -105 -13 -14 -47 -53 -75 -85 -29 -33 -61 -69 -72
-81 -11 -11 -56 -61 -100 -110 -44 -50 -94 -106 -111 -125 -17 -19 -56 -62
-85 -96 -30 -33 -88 -98 -130 -145 -42 -46 -100 -111 -129 -144 -29 -33 -87
-97 -128 -143 l-74 -82 -2050 0 -2050 0 89 98 c48 54 120 133 158 177 39 43
75 83 80 89 6 6 82 92 170 191 88 99 164 185 170 191 5 6 40 44 76 85 348 389
438 490 473 529 l41 45 1095 0 c1179 1 1117 -2 1168 53 42 44 54 110 31 168
-15 40 -66 83 -108 90 -20 4 -520 7 -1111 7 l-1075 -1 -365 371 c-866 878
-860 872 -839 877 11 3 143 4 292 3 165 -1 286 3 307 9 139 41 151 239 18 293
-32 12 -92 15 -348 15 -171 0 -310 2 -310 5 0 3 15 23 34 43 18 20 97 109 176
197 79 88 175 196 214 239 39 43 79 88 89 100 23 26 138 156 152 170 11 12
234 262 280 315 17 18 41 46 55 61 14 15 41 45 59 66 19 22 70 77 112 124 l77
85 2039 -1 c1121 -1 2042 -2 2046 -3z m316 -3905 c-2 -2 -123 -64 -269 -138
-146 -75 -322 -165 -392 -202 -71 -36 -128 -62 -128 -57 0 5 3 11 8 13 4 2 43
44 87 93 43 50 86 97 95 106 43 45 155 173 158 180 2 5 103 9 225 9 121 0 218
-2 216 -4z"/>
</g>
</svg>
