<?xml version="1.0" encoding="utf-8"?>
<!-- Generator: Adobe Illustrator 19.1.0, SVG Export Plug-In . SVG Version: 6.00 Build 0)  -->
<svg version="1.1" id="Слой_1" xmlns="http://www.w3.org/2000/svg" xmlns:xlink="http://www.w3.org/1999/xlink" x="0px" y="0px"
	 viewBox="0 0 64 76" style="enable-background:new 0 0 64 76;" xml:space="preserve">
<g>
	<g>
		<g>
			<path d="M56.7,18.4c-8.3-2.3-16.6-5.8-24-10.2c-0.4-0.2-0.9-0.2-1.3,0c-7.7,4.5-15.5,7.9-24,10.2c-0.5,0.2-0.9,0.6-0.9,1.2v12.9
				c0,13.3,6.1,22.1,11.3,27.1C23.2,65,29.7,68,32,68c2.3,0,8.8-3,14.3-8.4c5.1-5,11.3-13.8,11.3-27.1V19.6
				C57.6,19,57.2,18.5,56.7,18.4z M55.1,32.5c0,12.4-5.7,20.6-10.5,25.3c-5.4,5.3-11.3,7.7-12.6,7.7s-7.1-2.4-12.6-7.7
				C14.7,53.1,8.9,44.9,8.9,32.5V20.5c8.1-2.3,15.7-5.5,23.1-9.8c7.2,4.2,15.1,7.6,23.1,9.8V32.5z"/>
			<path d="M20.8,20.4c-0.3-0.6-1-1-1.6-0.7c-2.3,0.9-4.6,1.7-6.9,2.4c-0.5,0.2-0.9,0.7-0.9,1.2v4.9c0,0.7,0.6,1.3,1.3,1.3
				c0.7,0,1.3-0.6,1.3-1.3v-4c2.1-0.7,4.1-1.4,6.2-2.2C20.8,21.8,21.1,21,20.8,20.4z"/>
			<path d="M23.2,20.6c0.2,0,0.3,0,0.5-0.1l0,0c0.6-0.3,0.9-1,0.6-1.7c-0.3-0.6-1-0.9-1.7-0.6l0,0c-0.6,0.3-0.9,1-0.6,1.7
				C22.3,20.4,22.7,20.6,23.2,20.6z"/>
			<path d="M47,48.7c-0.6-0.4-1.4-0.2-1.7,0.4c-1,1.6-2.3,3.1-3.6,4.5c-1.1,1.2-2.3,2.2-3.6,3.2c-0.6,0.4-0.7,1.2-0.2,1.8
				c0.2,0.3,0.6,0.5,1,0.5c0.3,0,0.5-0.1,0.8-0.3c1.4-1.1,2.7-2.2,3.9-3.5c1.5-1.5,2.8-3.2,3.9-4.9C47.8,49.9,47.6,49.1,47,48.7z"/>
			<path d="M35.1,58.8L35.1,58.8c-0.7,0.4-0.9,1.2-0.5,1.8c0.2,0.4,0.7,0.6,1.1,0.6c0.2,0,0.4-0.1,0.6-0.2l0.1,0
				c0.6-0.4,0.8-1.1,0.5-1.7C36.5,58.6,35.7,58.4,35.1,58.8z"/>
			<path d="M23.4,35.4c-0.8-0.8-1.8-1.2-2.9-1.2c-1.1,0-2.1,0.4-2.9,1.2c-1.6,1.6-1.6,4.2,0,5.8l7.5,7.5c0.8,0.8,1.8,1.2,2.9,1.2
				c1.1,0,2.1-0.4,2.9-1.2l15.6-15.6c1.6-1.6,1.6-4.2,0-5.8c-0.8-0.8-1.8-1.2-2.9-1.2c-1.1,0-2.1,0.4-2.9,1.2L27.9,40L23.4,35.4z
				 M42.4,29.1c0.3-0.3,0.7-0.5,1.1-0.5c0.4,0,0.8,0.2,1.1,0.5c0.6,0.6,0.6,1.6,0,2.2L29.1,46.9c-0.3,0.3-0.7,0.5-1.1,0.5
				c-0.4,0-0.8-0.2-1.1-0.5l-7.5-7.5c-0.6-0.6-0.6-1.6,0-2.2c0.3-0.3,0.7-0.5,1.1-0.5c0.4,0,0.8,0.2,1.1,0.5l5.4,5.4
				c0.2,0.2,0.6,0.4,0.9,0.4c0.3,0,0.7-0.1,0.9-0.4L42.4,29.1z"/>
		</g>
	</g>
</g>
</svg>
