<?xml version="1.0" encoding="utf-8"?>
<!-- Generator: Adobe Illustrator 19.1.0, SVG Export Plug-In . SVG Version: 6.00 Build 0)  -->
<svg version="1.1" id="Слой_1" xmlns="http://www.w3.org/2000/svg" xmlns:xlink="http://www.w3.org/1999/xlink" x="0px" y="0px"
	 viewBox="0 0 64 76" style="enable-background:new 0 0 64 76;" xml:space="preserve">
<g>
	<path d="M38.6,12.5v-4h0.7c0.6,0,1-0.5,1-1V5.3c0-2.7-2.2-4.8-4.8-4.8h-7c-2.7,0-4.8,2.2-4.8,4.8v2.3c0,0.6,0.5,1,1,1h0.7v4
		c-4.7,1-9,3-12.7,5.8L10.3,16c-0.8-0.8-2.2-0.8-3,0l-2.9,2.9c-0.4,0.4-0.6,0.9-0.6,1.5c0,0.6,0.2,1.1,0.6,1.5l2.3,2.3
		C2.5,29.6,0,36.5,0,43.9c0,17.6,14.4,32,32,32s32-14.4,32-32C64,28.5,53.1,15.6,38.6,12.5z M25.7,5.3c0-1.5,1.2-2.8,2.8-2.8h7
		c1.5,0,2.8,1.2,2.8,2.8v1.3H25.7V5.3z M27.5,8.7h9.1v3.5c-1.5-0.2-3-0.3-4.5-0.3c-1.5,0-3.1,0.1-4.5,0.3V8.7z M5.9,20.4
		C5.9,20.4,5.9,20.4,5.9,20.4C5.9,20.4,5.9,20.4,5.9,20.4l2.9-3c0,0,0.1,0,0.1,0l2.2,2.2c-1.1,0.9-2.1,1.9-3,3L5.9,20.4z M32,73.8
		c-16.5,0-29.9-13.4-29.9-29.9S15.5,13.9,32,13.9c16.5,0,29.9,13.4,29.9,29.9S48.5,73.8,32,73.8z"/>
	<path d="M32,18.9c-13.8,0-25,11.2-25,25s11.2,25,25,25c13.8,0,25-11.2,25-25S45.8,18.9,32,18.9z M32,66.8
		c-12.6,0-22.9-10.3-22.9-22.9S19.4,20.9,32,20.9s22.9,10.3,22.9,22.9S44.6,66.8,32,66.8z"/>
	<path d="M33,30.5c-0.1-0.5-0.5-0.8-1-0.8c-0.5,0-0.9,0.3-1,0.8c0,0-2.7,12.8-2.7,13.3c0,2,1.7,3.7,3.7,3.7s3.7-1.7,3.7-3.7
		C35.7,43.4,33,30.5,33,30.5z M32,35.9l0.9,4.4c-0.3-0.1-0.6-0.1-0.9-0.1c-0.3,0-0.6,0-0.9,0.1L32,35.9z M32,45.5
		c-0.9,0-1.7-0.7-1.7-1.7s0.7-1.7,1.7-1.7c0.9,0,1.7,0.7,1.7,1.7S32.9,45.5,32,45.5z"/>
	<path d="M32,59.7c-0.6,0-1,0.5-1,1v4c0,0.6,0.5,1,1,1c0.6,0,1-0.5,1-1v-4C33,60.2,32.6,59.7,32,59.7z"/>
	<path d="M32,28c0.6,0,1-0.5,1-1v-4c0-0.6-0.5-1-1-1c-0.6,0-1,0.5-1,1v4C31,27.5,31.4,28,32,28z"/>
	<path d="M19.3,55.1l-2.8,2.8c-0.4,0.4-0.4,1,0,1.5c0.2,0.2,0.5,0.3,0.7,0.3s0.5-0.1,0.7-0.3l2.8-2.8c0.4-0.4,0.4-1,0-1.5
		C20.4,54.7,19.7,54.7,19.3,55.1z"/>
	<path d="M44,32.9c0.3,0,0.5-0.1,0.7-0.3l2.8-2.8c0.4-0.4,0.4-1.1,0-1.5c-0.4-0.4-1.1-0.4-1.5,0l-2.8,2.8c-0.2,0.2-0.3,0.5-0.3,0.8
		C42.9,32.5,43.4,32.9,44,32.9z"/>
	<path d="M15.1,42.8h-4c-0.6,0-1,0.5-1,1s0.5,1,1,1h4c0.6,0,1-0.5,1-1S15.7,42.8,15.1,42.8z"/>
	<path d="M52.9,42.8h-4c-0.6,0-1,0.5-1,1s0.5,1,1,1h4c0.6,0,1-0.5,1-1S53.4,42.8,52.9,42.8z"/>
	<path d="M19.3,32.6c0.2,0.2,0.5,0.3,0.7,0.3h0c0.6,0,1-0.5,1-1c0-0.3-0.1-0.6-0.3-0.7L18,28.4c-0.4-0.4-1-0.4-1.5,0
		c-0.4,0.4-0.4,1,0,1.5L19.3,32.6z"/>
	<path d="M44.7,55.1c-0.4-0.4-1.1-0.4-1.5,0c-0.4,0.4-0.4,1,0,1.5l2.8,2.8c0.2,0.2,0.5,0.3,0.7,0.3c0.3,0,0.5-0.1,0.7-0.3
		c0.4-0.4,0.4-1,0-1.5L44.7,55.1z"/>
</g>
</svg>
