<?xml version="1.0" encoding="utf-8"?>
<!-- Generator: Adobe Illustrator 19.1.0, SVG Export Plug-In . SVG Version: 6.00 Build 0)  -->
<svg version="1.1" id="Слой_1" xmlns="http://www.w3.org/2000/svg" xmlns:xlink="http://www.w3.org/1999/xlink" x="0px" y="0px"
	 viewBox="0 0 64 76" style="enable-background:new 0 0 64 76;" xml:space="preserve">
<g>
	<g>
		<g>
			<path d="M32,6.8c-16.5,0-30,13.5-30,30c0,7.6,2.8,14.8,8,20.4L8.3,67.9c-0.1,0.4,0.1,0.9,0.5,1.1c0.2,0.1,0.4,0.2,0.7,0.2
				c0.2,0,0.4,0,0.5-0.1l9.7-5c3.9,1.8,8,2.6,12.3,2.6c16.5,0,30-13.5,30-30C62,20.2,48.5,6.8,32,6.8z M32,64.4
				c-4.1,0-8.1-0.9-11.9-2.7c-0.3-0.2-0.7-0.2-1,0L11,65.9l1.4-9.1c0.1-0.4-0.1-0.7-0.3-1c-5-5.2-7.7-12-7.7-19.1
				C4.4,21.5,16.8,9.1,32,9.1s27.6,12.4,27.6,27.6S47.2,64.4,32,64.4z"/>
		</g>
	</g>
	<g>
		<g>
			<path d="M32,15.4c-3.4,0-6.3,2.8-6.3,6.3s2.8,6.3,6.3,6.3c3.4,0,6.3-2.8,6.3-6.3C38.3,18.2,35.4,15.4,32,15.4z M32,25.5
				c-2.1,0-3.9-1.7-3.9-3.9s1.7-3.9,3.9-3.9c2.1,0,3.9,1.7,3.9,3.9C35.9,23.8,34.1,25.5,32,25.5z"/>
		</g>
	</g>
	<g>
		<g>
			<path d="M38.9,50.4h-1.3V31.1c0-0.7-0.5-1.2-1.2-1.2H25.1c-0.7,0-1.2,0.5-1.2,1.2V35c0,0.7,0.5,1.2,1.2,1.2h1.3v14.3h-1.3
				c-0.7,0-1.2,0.5-1.2,1.2v3.9c0,0.7,0.5,1.2,1.2,1.2h13.9c0.7,0,1.2-0.5,1.2-1.2v-3.9C40.1,50.9,39.6,50.4,38.9,50.4z M37.7,54.3
				H26.3v-1.6h1.3c0.7,0,1.2-0.5,1.2-1.2V35c0-0.7-0.5-1.2-1.2-1.2h-1.3v-1.6h9v19.4c0,0.7,0.5,1.2,1.2,1.2h1.3V54.3z"/>
		</g>
	</g>
</g>
</svg>
