<?xml version="1.0" encoding="utf-8"?>
<!-- Generator: Adobe Illustrator 19.1.0, SVG Export Plug-In . SVG Version: 6.00 Build 0)  -->
<svg version="1.1" id="Слой_1" xmlns="http://www.w3.org/2000/svg" xmlns:xlink="http://www.w3.org/1999/xlink" x="0px" y="0px"
	 viewBox="0 0 64 76" style="enable-background:new 0 0 64 76;" xml:space="preserve">
<g>
	<path d="M60.9,65.2l-9.2-22.3c-0.2-0.6-0.9-0.8-1.5-0.6c-0.6,0.2-0.8,0.9-0.6,1.5L58,63.9l-7.6-2.2c-0.5-0.1-1,0.1-1.3,0.5l-3.8,7
		l-9-21.7c10.4-2,18.2-11.1,18.2-22C54.5,13.1,44.4,3,32,3S9.5,13.1,9.5,25.4c0,5,1.7,9.7,4.4,13.4L3.1,65.2C2.9,65.5,3,66,3.3,66.3
		c0.3,0.3,0.7,0.4,1.1,0.3l9-2.6l4.5,8.2c0.2,0.4,0.6,0.6,1,0.6c0,0,0,0,0.1,0c0.4,0,0.8-0.3,1-0.7l8.6-20.9c0.2-0.6,0-1.2-0.6-1.5
		c-0.6-0.2-1.2,0-1.5,0.6l-7.8,18.7l-3.8-7c-0.3-0.5-0.8-0.7-1.3-0.5L6,63.9l9.6-23.1c4.1,4.4,9.9,7.1,16.4,7.1c0.7,0,1.3,0,2-0.1
		l10.1,24.3c0.2,0.4,0.5,0.7,1,0.7c0,0,0,0,0.1,0c0.4,0,0.8-0.2,1-0.6l4.5-8.2l9,2.6c0.4,0.1,0.9,0,1.1-0.3S61.1,65.5,60.9,65.2
		L60.9,65.2z M11.8,25.4c0-11.2,9.1-20.2,20.2-20.2s20.2,9.1,20.2,20.2S43.2,45.7,32,45.7S11.8,36.6,11.8,25.4L11.8,25.4z"/>
	<path d="M44.9,21.3c-0.1-0.4-0.5-0.7-0.9-0.8l-7.5-1.3L33,12.5c-0.2-0.4-0.6-0.6-1-0.6c-0.4,0-0.8,0.2-1,0.6l-3.5,6.7L20,20.5
		c-0.4,0.1-0.7,0.4-0.9,0.8s0,0.8,0.3,1.1l5.3,5.4l-1.1,7.5c-0.1,0.4,0.1,0.8,0.4,1.1c0.3,0.2,0.8,0.3,1.2,0.1l6.8-3.4l6.8,3.4
		c0.2,0.1,0.3,0.1,0.5,0.1c0.2,0,0.5-0.1,0.7-0.2c0.3-0.2,0.5-0.7,0.4-1.1l-1.1-7.5l5.3-5.4C44.9,22.1,45,21.7,44.9,21.3z
		 M37.3,26.6c-0.2,0.2-0.4,0.6-0.3,0.9l0.9,6l-5.4-2.7c-0.2-0.1-0.3-0.1-0.5-0.1c-0.2,0-0.3,0-0.5,0.1l-5.4,2.7l0.9-6
		c0.1-0.3-0.1-0.7-0.3-0.9l-4.2-4.3l5.9-1c0.3-0.1,0.6-0.3,0.8-0.6l2.8-5.3l2.8,5.3c0.2,0.3,0.5,0.5,0.8,0.6l5.9,1L37.3,26.6
		L37.3,26.6z"/>
	<path d="M48.9,26.6c-0.6-0.1-1.2,0.3-1.3,1c-1,7.8-7.8,13.7-15.6,13.7c-8.7,0-15.8-7.1-15.8-15.8S23.3,9.7,32,9.7
		c7.9,0,14.6,5.9,15.6,13.7c0.1,0.6,0.6,1,1.3,1c0.6-0.1,1-0.6,1-1.3C48.7,14.2,41,7.4,32,7.4c-9.9,0-18,8.1-18,18s8.1,18,18,18
		c9,0,16.7-6.7,17.8-15.6C49.9,27.2,49.5,26.6,48.9,26.6L48.9,26.6z"/>
</g>
</svg>
