<?xml version="1.0" encoding="utf-8"?>
<!-- Generator: Adobe Illustrator 19.1.0, SVG Export Plug-In . SVG Version: 6.00 Build 0)  -->
<svg version="1.1" id="Слой_1" xmlns="http://www.w3.org/2000/svg" xmlns:xlink="http://www.w3.org/1999/xlink" x="0px" y="0px"
	 viewBox="0 0 64 76" style="enable-background:new 0 0 64 76;" xml:space="preserve">
<g>
	<path d="M51.8,53.4c-0.6,0-1.1,0.5-1.1,1.1v16H36.4c-0.6,0-1.1,0.5-1.1,1.1s0.5,1.1,1.1,1.1h15.4c0.6,0,1.1-0.5,1.1-1.1V54.5
		C52.9,53.9,52.4,53.4,51.8,53.4L51.8,53.4z"/>
	<path d="M56.9,49.6l-4.1-9.7c-0.2-0.4-0.6-0.7-1-0.7H12.2c-0.4,0-0.8,0.3-1,0.7l-4.1,9.7c-0.1,0.3-0.1,0.7,0.1,1
		c0.2,0.3,0.5,0.5,0.9,0.5h3v20.4c0,0.6,0.5,1.1,1.1,1.1H32c0.6,0,1.1-0.5,1.1-1.1V45.8l1.9,4.7c0.2,0.4,0.6,0.7,1,0.7h19.8
		c0.4,0,0.7-0.2,0.9-0.5C57,50.4,57.1,50,56.9,49.6L56.9,49.6z M12.9,41.4h17.5L27.2,49H9.8L12.9,41.4z M13.3,70.4V51.2h14.7
		c0.4,0,0.8-0.3,1-0.7l1.9-4.7v24.6H13.3L13.3,70.4z M36.8,49l-3.1-7.5h17.5l3.1,7.5H36.8z"/>
	<path d="M24.7,29.3l0.6,2.5c0.1,0.5,0.6,0.8,1.1,0.8h11.3c0.5,0,0.9-0.3,1.1-0.8l0.6-2.5c4.1-2.5,6.6-7,6.6-11.8
		c0-7.7-6.2-13.9-13.9-13.9S18.1,9.8,18.1,17.5C18.1,22.3,20.6,26.8,24.7,29.3z M32,5.8c6.5,0,11.7,5.2,11.7,11.7
		c0,4.2-2.3,8.1-5.9,10.2c-0.3,0.1-0.4,0.4-0.5,0.7l-0.5,2.1h-9.6l-0.5-2.1c-0.1-0.3-0.3-0.5-0.5-0.7c-3.6-2.1-5.9-6-5.9-10.2
		C20.3,11.1,25.5,5.8,32,5.8z"/>
	<path d="M37.7,34.8H26.3c-0.6,0-1.1,0.5-1.1,1.1s0.5,1.1,1.1,1.1h11.3c0.6,0,1.1-0.5,1.1-1.1S38.3,34.8,37.7,34.8z"/>
	<path d="M28.7,27.4c0.1,0.5,0.6,0.8,1.1,0.8c0.1,0,0.2,0,0.3,0c0.6-0.1,1-0.7,0.8-1.3l-1-3.9h4.2l-1,3.9c-0.1,0.6,0.2,1.2,0.8,1.3
		c0.1,0,0.2,0,0.3,0c0.5,0,0.9-0.3,1.1-0.8l1.3-5.3c0,0,0,0,0,0c0,0,0,0,0-0.1c0,0,0,0,0,0c0,0,0,0,0-0.1c0,0,0,0,0-0.1c0,0,0,0,0,0
		c0,0,0,0,0,0c0,0,0,0,0-0.1c0,0,0,0,0,0c0,0,0,0,0-0.1c0,0,0,0,0-0.1s0,0,0-0.1c0,0,0,0,0-0.1c0,0,0,0,0,0c0,0,0,0,0-0.1
		c0,0,0,0,0,0c0,0,0,0,0-0.1c0,0,0,0,0,0c0,0,0,0,0,0c0,0,0,0,0,0c0,0,0,0,0,0c0,0,0,0,0,0c0,0,0,0,0,0c0,0,0,0,0,0c0,0,0,0,0,0
		c0,0,0,0,0,0c0,0,0,0,0,0c0,0,0,0,0,0c0,0,0,0,0,0c0,0,0,0,0,0c0,0,0,0-0.1,0c0,0,0,0,0,0c0,0,0,0-0.1,0c0,0,0,0,0,0c0,0,0,0,0,0
		c0,0,0,0-0.1,0c0,0,0,0-0.1,0c0,0,0,0,0,0c0,0,0,0-0.1,0c0,0,0,0,0,0h-7c-0.3,0-0.7,0.2-0.9,0.4c-0.2,0.3-0.3,0.6-0.2,0.9
		L28.7,27.4L28.7,27.4z"/>
</g>
</svg>
