<?xml version="1.0" encoding="utf-8"?>
<!-- Generator: Adobe Illustrator 19.1.0, SVG Export Plug-In . SVG Version: 6.00 Build 0)  -->
<svg version="1.1" id="Слой_1" xmlns="http://www.w3.org/2000/svg" xmlns:xlink="http://www.w3.org/1999/xlink" x="0px" y="0px"
	 viewBox="0 0 560 560" style="enable-background:new 0 0 560 560;" xml:space="preserve">
<g>
	<g>
		<path d="M545.3,358.6c-1.3-5.4-6.1-9.2-11.7-9.2h-32.5l38-19.5c4.9-2.5,7.5-8.1,6.2-13.5c-1.3-5.4-6.1-9.2-11.7-9.2h-61.6
			l23.8-26.7c0,0,0,0,0-0.1c0.7-0.8,1.4-1.8,1.8-2.8c0-0.1,0.1-0.1,0.1-0.2c0.4-1,0.8-2,0.9-3c0-0.1,0-0.2,0-0.3
			c0.1-0.5,0.1-1,0.1-1.5c0,0,0,0,0,0c0-0.5,0-1-0.1-1.5c0-0.1,0-0.3-0.1-0.4c-0.1-0.5-0.2-0.9-0.3-1.4c0,0,0-0.1,0-0.1
			c-0.1-0.5-0.3-1-0.5-1.4c0-0.1,0-0.1-0.1-0.2c0-0.1-0.1-0.1-0.1-0.2c-0.2-0.4-0.4-0.8-0.6-1.2c0-0.1-0.1-0.2-0.1-0.2
			c-0.3-0.4-0.5-0.8-0.8-1.1c-0.1-0.2-0.3-0.3-0.4-0.5c-0.1-0.1-0.2-0.2-0.3-0.3L386.6,152.9L495.9,30.5c3.2-3.5,3.9-8.6,2-12.9
			c-1.9-4.3-6.2-7.1-11-7.1H143.1c-3.4,0-6.7,1.5-9,4L17.4,145.3c0,0-0.1,0.1-0.1,0.1c-0.3,0.4-0.7,0.8-1,1.3c0,0,0,0.1-0.1,0.1
			c-0.3,0.4-0.5,0.8-0.7,1.3c0,0.1-0.1,0.2-0.1,0.3c-0.4,0.9-0.7,1.9-0.9,2.9c0,0.1,0,0.2-0.1,0.4c-0.1,0.5-0.1,1-0.1,1.4
			c0,0,0,0.1,0,0.1c0,0.5,0,1,0.1,1.5c0,0.1,0,0.3,0,0.4c0.1,0.5,0.2,1,0.3,1.5c0,0,0,0,0,0c0.1,0.5,0.3,1,0.5,1.5
			c0,0,0,0.1,0.1,0.1c0,0,0.1,0.1,0.1,0.1c0.2,0.5,0.5,0.9,0.7,1.4c0,0,0,0,0,0c0.3,0.4,0.6,0.8,0.9,1.2c0.1,0.1,0.2,0.2,0.3,0.3
			c0.1,0.1,0.2,0.3,0.3,0.4l108.9,111.1L17.4,395.2c0,0-0.1,0.1-0.1,0.1c-0.3,0.4-0.7,0.8-0.9,1.2c0,0.1-0.1,0.1-0.1,0.2
			c-0.3,0.4-0.5,0.8-0.7,1.2c0,0.1-0.1,0.2-0.1,0.3c-0.2,0.5-0.4,1-0.6,1.5c0,0,0,0,0,0c-0.1,0.5-0.2,1-0.3,1.5c0,0.1,0,0.3-0.1,0.4
			c-0.1,0.4-0.1,0.9-0.1,1.3c0,0.1,0,0.2,0,0.3c0,0,0,0.1,0,0.1c0,0.5,0,1,0.1,1.4c0,0.1,0,0.2,0.1,0.3c0.1,0.4,0.2,0.9,0.3,1.3
			c0,0.1,0,0.2,0.1,0.3c0.2,0.5,0.3,1,0.5,1.5c0,0,0,0,0,0.1c0,0,0,0.1,0.1,0.1c0.2,0.4,0.4,0.9,0.7,1.3c0.1,0.1,0.1,0.2,0.2,0.3
			c0.3,0.4,0.6,0.8,0.9,1.2c0.1,0.1,0.1,0.2,0.2,0.2c0.3,0.3,0.6,0.6,0.9,0.9c0.1,0.1,0.2,0.2,0.3,0.2c0.4,0.3,0.8,0.6,1.2,0.9
			c0.1,0,0.1,0.1,0.2,0.1c0.4,0.2,0.8,0.5,1.2,0.7c0.1,0,0.2,0.1,0.3,0.1c0.5,0.2,1,0.4,1.5,0.6c0,0,0.1,0,0.1,0
			c0.5,0.1,0.9,0.2,1.4,0.3c0.1,0,0.2,0,0.4,0.1c0.5,0.1,1,0.1,1.6,0.1h343.8c0.5,0,0.9,0,1.4-0.1c0.1,0,0.3,0,0.4-0.1
			c0.3,0,0.6-0.1,0.9-0.2c0.2,0,0.3-0.1,0.5-0.1c0.3-0.1,0.5-0.2,0.8-0.2c0.2-0.1,0.3-0.1,0.5-0.2c0.3-0.1,0.5-0.2,0.8-0.3
			c0.1,0,0.2-0.1,0.3-0.1l78.8-40.5H484l-116.7,60H26.4c-6.6,0-12,5.4-12,12c0,6.6,5.4,12,12,12h343.8c1.9,0,3.8-0.5,5.5-1.3
			l78.8-40.5H484l-116.7,60H26.4c-6.6,0-12,5.4-12,12c0,6.6,5.4,12,12,12h343.8c1.9,0,3.8-0.5,5.5-1.3l78.8-40.5H484l-116.7,60H26.4
			c-6.6,0-12,5.4-12,12s5.4,12,12,12h343.8c1.9,0,3.8-0.5,5.5-1.3l163.5-84.1c4.9-2.5,7.5-8.1,6.2-13.5c-1.3-5.4-6.1-9.2-11.7-9.2
			h-32.5l38-19.5c4.9-2.5,7.5-8.1,6.2-13.5c-1.3-5.4-6.1-9.2-11.7-9.2h-32.5l38-19.5C544.1,369.5,546.6,364,545.3,358.6L545.3,358.6
			z M484,331.2l-61.7,31.7l28.3-31.7H484z M53.2,391.2l95.3-106.7h163.4c6.6,0,12-5.4,12-12c0-6.6-5.4-12-12-12H148.2L55,165.4h44.1
			c6.6,0,12-5.4,12-12c0-6.6-5.4-12-12-12H53.2l95.3-106.7h311.5l-95.3,106.7H147.2c-6.6,0-12,5.4-12,12c0,6.6,5.4,12,12,12h217.9
			l93.2,95H360c-6.6,0-12,5.4-12,12c0,6.6,5.4,12,12,12h100.1l-95.3,106.7H53.2z M53.2,391.2"/>
	</g>
</g>
</svg>
